<?xml version="1.0" encoding="UTF-8"?>
<svg width="371px" height="36px" viewBox="0 0 371 36" version="1.1" xmlns="http://www.w3.org/2000/svg" xmlns:xlink="http://www.w3.org/1999/xlink">
    <!-- Generator: Sketch 46 (44423) - http://www.bohemiancoding.com/sketch -->
    <title>Rocketpunch Copy 6</title>
    <desc>Created with Sketch.</desc>
    <defs></defs>
    <g id="Page-1" stroke="none" stroke-width="1" fill="none" fill-rule="evenodd">
        <g id="Artboard-2" transform="translate(-18.000000, -28.000000)" fill="#FF4400">
            <path d="M35.956,63 L29.524,50.808 L29.524,63 L18.868,63 L18.868,29.016 L34.708,29.016 C37.4600138,29.016 39.8119902,29.5039951 41.764,30.48 C43.7160098,31.4560049 45.1799951,32.7839916 46.156,34.464 C47.1320049,36.1440084 47.62,38.0399894 47.62,40.152 C47.62,42.4240114 46.9880063,44.4399912 45.724,46.2 C44.4599937,47.9600088 42.6440118,49.2239962 40.276,49.992 L47.668,63 L35.956,63 Z M29.524,43.704 L33.748,43.704 C34.7720051,43.704 35.5399974,43.4720023 36.052,43.008 C36.5640026,42.5439977 36.82,41.816005 36.82,40.824 C36.82,39.9279955 36.5560026,39.2240026 36.028,38.712 C35.4999974,38.1999974 34.740005,37.944 33.748,37.944 L29.524,37.944 L29.524,43.704 Z M67.588,28.44 C70.788016,28.44 73.7159867,29.1839926 76.372,30.672 C79.0280133,32.1600074 81.1319922,34.2319867 82.684,36.888 C84.2360078,39.5440133 85.012,42.5359834 85.012,45.864 C85.012,49.1920166 84.2360078,52.1839867 82.684,54.84 C81.1319922,57.4960133 79.0200134,59.5759925 76.348,61.08 C73.6759866,62.5840075 70.7560158,63.336 67.588,63.336 C64.387984,63.336 61.4520134,62.5840075 58.78,61.08 C56.1079866,59.5759925 53.9880078,57.4960133 52.42,54.84 C50.8519922,52.1839867 50.068,49.1920166 50.068,45.864 C50.068,42.5359834 50.8519922,39.5440133 52.42,36.888 C53.9880078,34.2319867 56.1079866,32.1600074 58.78,30.672 C61.4520134,29.1839926 64.387984,28.44 67.588,28.44 Z M67.588,38.28 C65.4439893,38.28 63.7960058,38.9599932 62.644,40.32 C61.4919942,41.6800068 60.916,43.5279883 60.916,45.864 C60.916,48.1680115 61.4919942,49.9999932 62.644,51.36 C63.7960058,52.7200068 65.4439893,53.4 67.588,53.4 C69.7000106,53.4 71.3319942,52.7200068 72.484,51.36 C73.6360058,49.9999932 74.212,48.1680115 74.212,45.864 C74.212,43.5279883 73.6360058,41.6800068 72.484,40.32 C71.3319942,38.9599932 69.7000106,38.28 67.588,38.28 Z M104.692,28.68 C107.636015,28.68 110.267988,29.2319945 112.588,30.336 C114.908012,31.4400055 116.795993,32.9999899 118.252,35.016 C119.708007,37.0320101 120.675998,39.3839866 121.156,42.072 L109.924,42.072 C109.411997,40.9519944 108.684005,40.0800031 107.74,39.456 C106.795995,38.8319969 105.716006,38.52 104.5,38.52 C102.707991,38.52 101.292005,39.1919933 100.252,40.536 C99.2119948,41.8800067 98.692,43.6879886 98.692,45.96 C98.692,48.2320114 99.2119948,50.0399933 100.252,51.384 C101.292005,52.7280067 102.707991,53.4 104.5,53.4 C105.716006,53.4 106.795995,53.0880031 107.74,52.464 C108.684005,51.8399969 109.411997,50.9680056 109.924,49.848 L121.156,49.848 C120.675998,52.5360134 119.708007,54.8879899 118.252,56.904 C116.795993,58.9200101 114.908012,60.4799945 112.588,61.584 C110.267988,62.6880055 107.636015,63.24 104.692,63.24 C101.267983,63.24 98.2920126,62.5120073 95.764,61.056 C93.2359874,59.5999927 91.2920068,57.5600131 89.932,54.936 C88.5719932,52.3119869 87.892,49.3200168 87.892,45.96 C87.892,42.5999832 88.5719932,39.6080131 89.932,36.984 C91.2920068,34.3599869 93.2359874,32.3200073 95.764,30.864 C98.2920126,29.4079927 101.267983,28.68 104.692,28.68 Z M145.78,45.528 L158.356,63 L145.54,63 L135.652,48.264 L135.652,63 L124.996,63 L124.996,29.016 L135.652,29.016 L135.652,43.368 L145.636,29.016 L158.356,29.016 L145.78,45.528 Z M171.892,37.464 L171.892,41.688 L182.452,41.688 L182.452,49.704 L171.892,49.704 L171.892,54.504 L183.892,54.504 L183.892,63 L161.236,63 L161.236,29.016 L183.892,29.016 L183.892,37.464 L171.892,37.464 Z M214.612,29.016 L214.612,37.464 L205.588,37.464 L205.588,63 L194.932,63 L194.932,37.464 L186.004,37.464 L186.004,29.016 L214.612,29.016 Z M228.148,52.2 L228.148,63 L217.492,63 L217.492,29.016 L232.372,29.016 C236.532021,29.016 239.723989,30.0719894 241.948,32.184 C244.172011,34.2960106 245.284,37.1279822 245.284,40.68 C245.284,42.8240107 244.788005,44.7679913 243.796,46.512 C242.803995,48.2560087 241.34001,49.6399949 239.404,50.664 C237.46799,51.6880051 235.124014,52.2 232.372,52.2 L228.148,52.2 Z M231.172,43.8 C233.380011,43.8 234.484,42.7600104 234.484,40.68 C234.484,38.5999896 233.380011,37.56 231.172,37.56 L228.148,37.56 L228.148,43.8 L231.172,43.8 Z M259.06,29.016 L259.06,48.168 C259.06,49.7360078 259.403997,50.9759954 260.092,51.888 C260.780003,52.8000046 261.891992,53.256 263.428,53.256 C264.964008,53.256 266.099996,52.8000046 266.836,51.888 C267.572004,50.9759954 267.94,49.7360078 267.94,48.168 L267.94,29.016 L278.548,29.016 L278.548,48.168 C278.548,51.4000162 277.876007,54.1599886 276.532,56.448 C275.187993,58.7360114 273.348012,60.4559942 271.012,61.608 C268.675988,62.7600058 266.068014,63.336 263.188,63.336 C260.307986,63.336 257.756011,62.7600058 255.532,61.608 C253.307989,60.4559942 251.572006,58.7440114 250.324,56.472 C249.075994,54.1999886 248.452,51.4320163 248.452,48.168 L248.452,29.016 L259.06,29.016 Z M315.748,63 L305.092,63 L293.812,45.912 L293.812,63 L283.156,63 L283.156,29.016 L293.812,29.016 L305.092,46.392 L305.092,29.016 L315.748,29.016 L315.748,63 Z M336.388,28.68 C339.332015,28.68 341.963988,29.2319945 344.284,30.336 C346.604012,31.4400055 348.491993,32.9999899 349.948,35.016 C351.404007,37.0320101 352.371998,39.3839866 352.852,42.072 L341.62,42.072 C341.107997,40.9519944 340.380005,40.0800031 339.436,39.456 C338.491995,38.8319969 337.412006,38.52 336.196,38.52 C334.403991,38.52 332.988005,39.1919933 331.948,40.536 C330.907995,41.8800067 330.388,43.6879886 330.388,45.96 C330.388,48.2320114 330.907995,50.0399933 331.948,51.384 C332.988005,52.7280067 334.403991,53.4 336.196,53.4 C337.412006,53.4 338.491995,53.0880031 339.436,52.464 C340.380005,51.8399969 341.107997,50.9680056 341.62,49.848 L352.852,49.848 C352.371998,52.5360134 351.404007,54.8879899 349.948,56.904 C348.491993,58.9200101 346.604012,60.4799945 344.284,61.584 C341.963988,62.6880055 339.332015,63.24 336.388,63.24 C332.963983,63.24 329.988013,62.5120073 327.46,61.056 C324.931987,59.5999927 322.988007,57.5600131 321.628,54.936 C320.267993,52.3119869 319.588,49.3200168 319.588,45.96 C319.588,42.5999832 320.267993,39.6080131 321.628,36.984 C322.988007,34.3599869 324.931987,32.3200073 327.46,30.864 C329.988013,29.4079927 332.963983,28.68 336.388,28.68 Z M388.132,29.016 L388.132,63 L377.476,63 L377.476,49.752 L367.348,49.752 L367.348,63 L356.692,63 L356.692,29.016 L367.348,29.016 L367.348,41.256 L377.476,41.256 L377.476,29.016 L388.132,29.016 Z" id="Rocketpunch-Copy-6"></path>
        </g>
    </g>
</svg>